<?xml version="1.0" standalone="no"?>
<!DOCTYPE svg PUBLIC "-//W3C//DTD SVG 20010904//EN"
 "http://www.w3.org/TR/2001/REC-SVG-20010904/DTD/svg10.dtd">
<svg version="1.0" xmlns="http://www.w3.org/2000/svg"
 width="512.000000pt" height="512.000000pt" viewBox="0 0 512.000000 512.000000"
 preserveAspectRatio="xMidYMid meet">
<metadata>
Created by potrace 1.11, written by Peter Selinger 2001-2013
</metadata>
<g transform="translate(0.000000,512.000000) scale(0.100000,-0.100000)"
fill="#000000" stroke="none">
<path d="M3440 4173 c-8 -3 -17 -9 -20 -13 -3 -4 -30 -19 -60 -33 -30 -15 -82
-42 -115 -61 -33 -18 -85 -45 -115 -60 -30 -15 -57 -30 -60 -35 -3 -4 -30 -20
-60 -35 -111 -54 -175 -88 -180 -96 -3 -4 -29 -18 -57 -30 -29 -12 -53 -26
-53 -30 0 -4 -29 -19 -65 -35 -36 -15 -65 -31 -65 -35 0 -4 -25 -18 -55 -30
-30 -12 -55 -26 -55 -30 0 -3 -26 -19 -57 -34 -32 -15 -85 -42 -118 -61 -33
-19 -87 -48 -120 -65 -33 -17 -87 -47 -120 -65 -33 -19 -78 -44 -100 -55 -22
-11 -71 -38 -110 -60 -38 -21 -95 -52 -125 -69 -30 -16 -84 -45 -120 -65 -36
-19 -87 -47 -115 -62 -27 -15 -52 -29 -55 -33 -3 -3 -29 -17 -59 -31 -30 -14
-59 -29 -65 -35 -6 -5 -28 -18 -48 -27 l-38 -18 0 -85 0 -85 -65 0 -65 0 0
-40 c0 -22 5 -40 10 -40 6 0 10 -18 10 -41 0 -48 -40 -252 -50 -259 -5 -3 -20
-35 -35 -72 -15 -38 -30 -68 -34 -68 -4 0 -15 -15 -26 -32 -10 -18 -28 -43
-39 -54 -48 -48 -86 -104 -116 -169 -28 -60 -34 -84 -38 -166 -4 -91 10 -199
27 -199 4 0 12 -19 19 -43 13 -42 57 -103 117 -160 81 -78 93 -87 97 -76 2 7
15 4 38 -9 77 -44 225 -58 325 -30 79 22 125 41 125 50 0 4 5 8 11 8 17 0 118
83 119 98 0 6 4 12 9 12 15 0 80 118 98 178 23 77 23 235 0 279 -10 18 -17 41
-17 51 0 11 -7 25 -15 32 -8 7 -15 18 -15 24 0 7 -32 50 -70 96 -72 84 -133
183 -145 233 -4 15 -11 27 -17 27 -5 0 -7 4 -4 9 3 5 -1 28 -9 51 -8 24 -13
45 -10 48 2 2 0 12 -5 22 -5 9 -12 49 -16 88 -5 58 -4 72 7 72 17 0 21 69 5
72 -6 0 -36 2 -66 2 l-55 1 0 64 0 63 65 35 c85 47 161 89 235 130 33 19 74
40 92 48 17 8 34 19 38 25 3 5 15 10 25 10 10 0 20 4 22 8 2 5 44 30 93 57
114 61 151 81 370 201 99 54 183 103 187 109 4 5 8 7 8 3 0 -4 30 10 68 31
110 62 174 97 222 122 25 12 53 29 63 37 9 8 17 11 17 6 0 -5 4 -4 8 1 4 6 23
18 42 29 19 10 139 75 265 144 262 143 275 149 295 154 8 2 17 6 20 10 11 14
58 -6 73 -32 15 -25 17 -67 17 -339 l0 -311 -65 0 -65 0 0 99 c0 55 -5 112
-11 128 -12 33 -49 74 -60 68 -4 -3 -10 -1 -14 5 -3 5 -22 10 -40 10 -31 0
-80 -22 -205 -93 -51 -29 -115 -64 -205 -114 -44 -24 -87 -48 -95 -53 -8 -5
-42 -23 -75 -41 -33 -17 -63 -36 -67 -43 -4 -6 -8 -6 -8 -1 0 7 -3 7 -8 0 -4
-5 -25 -19 -47 -30 -91 -47 -150 -80 -153 -87 -2 -5 -8 -8 -13 -8 -10 0 -237
-125 -301 -166 l-36 -23 2 -81 c2 -67 -1 -83 -15 -90 -9 -5 -19 -7 -22 -4 -5
5 -63 8 -108 5 -13 -1 -16 -11 -15 -43 2 -38 5 -43 24 -42 12 1 22 -1 23 -5 5
-58 2 -891 -4 -891 -5 0 -5 -5 -1 -12 10 -16 11 -148 1 -148 -5 0 -5 -5 -1
-12 4 -6 7 -63 7 -125 0 -62 3 -116 8 -119 5 -3 7 -9 5 -13 -5 -7 33 -51 67
-78 8 -6 34 -14 56 -17 62 -7 121 23 151 76 l24 43 1 650 c0 512 3 650 13 651
6 1 17 2 22 3 14 2 12 68 -2 77 -7 4 -44 7 -83 7 l-70 -2 1 47 c1 26 2 56 3
67 1 13 15 27 39 38 20 10 46 23 57 30 33 19 145 82 220 122 39 21 84 46 102
57 52 31 135 77 183 101 25 12 47 25 50 28 3 3 50 30 105 59 55 29 103 57 106
62 3 6 8 9 10 7 7 -3 87 40 94 51 3 5 15 10 26 10 10 0 19 4 19 10 0 5 11 12
25 16 13 3 29 12 36 20 6 8 15 11 20 8 5 -3 9 -1 9 5 0 15 43 3 57 -16 8 -11
12 -49 11 -110 l-1 -93 -119 0 -118 0 0 -89 0 -90 48 1 c26 0 56 0 68 -1 l21
-1 -1 -449 -1 -449 -50 -69 c-27 -37 -55 -75 -62 -83 -6 -8 -30 -40 -52 -70
-22 -30 -46 -62 -53 -70 -7 -8 -12 -18 -10 -22 1 -5 -2 -8 -7 -8 -4 0 -20 -18
-35 -40 -15 -22 -33 -48 -41 -58 -34 -41 -185 -244 -185 -248 0 -3 -8 -14 -18
-24 -36 -38 -62 -106 -62 -158 0 -28 5 -54 10 -57 6 -4 8 -11 5 -16 -4 -5 -1
-9 4 -9 6 0 11 -6 11 -13 0 -26 74 -82 123 -93 29 -7 1335 -7 1364 0 31 7 86
37 101 55 26 33 52 92 55 123 6 61 -47 167 -125 253 -16 17 -28 33 -28 36 0 3
-12 22 -27 42 -16 19 -37 47 -48 62 -33 45 -175 238 -196 265 -10 14 -43 58
-74 98 -30 40 -55 75 -55 78 0 3 -6 11 -13 19 -11 11 -14 99 -14 459 0 494 -6
451 67 447 75 -4 78 -1 76 91 l-1 83 -127 3 c-71 1 -128 6 -129 10 0 4 -2 156
-2 338 l-2 331 -39 36 c-21 20 -43 37 -48 37 -5 0 -16 7 -24 15 -15 15 -65 19
-94 8z"/>
</g>
</svg>
